<svg width="103" height="41" viewBox="0 0 103 41" fill="none" xmlns="http://www.w3.org/2000/svg">
<g clip-path="url(#clip0_94_92)">
<path fill-rule="evenodd" clip-rule="evenodd" d="M64.5043 32.8884C63.6124 32.6328 62.7372 32.3202 61.89 31.9398C61.5953 31.8074 61.2971 31.6834 60.9967 31.567C61.8107 29.8035 63.9277 25.7372 67.5998 22.0589C64.1383 21.4005 60.6486 23.0316 58.8901 26.1179C58.0314 27.625 57.2441 29.201 56.8849 30.4385C53.6568 29.8604 50.6493 29.9524 49.0596 30.1865C45.8992 30.6523 45.9508 33.0102 45.9508 33.0102C45.9411 34.065 46.5729 34.7471 47.2069 35.1651C47.7522 35.5247 48.3819 35.7344 49.0311 35.7888C56.1139 36.3811 58.3964 34.2416 58.3964 34.2416C56.6739 34.9437 52.7829 35.0735 51.9909 35.0929C51.8899 35.0954 51.789 35.0914 51.6887 35.0801C49.2781 34.8062 49.2074 33.1583 49.2074 33.1583C49.0924 30.657 52.0356 30.7828 52.0356 30.7828C55.931 30.8569 59.7618 34.5151 59.7618 34.5151C65.3674 39.5229 71.6221 40.1874 76.6383 39.7366C84.5762 39.0228 89.4709 32.0703 89.4709 32.0703C79.6285 36.4219 68.8451 34.1332 64.5047 32.8884H64.5043Z" fill="#3775BB"/>
<path fill-rule="evenodd" clip-rule="evenodd" d="M99.3243 0.505892C97.7674 0.0291905 95.7557 -0.0853347 92.6134 0.0569099C85.2966 0.388449 78.9665 9.52602 78.3555 9.88857C78.159 9.99543 77.9476 10.1038 77.7233 10.2092C76.1808 10.9357 74.0339 11.5408 71.9584 10.7646L69.3931 14.2686C69.3931 14.2686 73.2592 15.0849 76.4297 13.4932C76.3186 13.6686 76.2054 13.8481 76.0903 14.0323C75.8974 14.2537 75.5894 14.5648 75.1973 14.8161C75.026 14.9076 74.8443 14.9995 74.6528 15.0896C73.1103 15.8158 70.9633 16.4212 68.8878 15.6451L66.3225 19.1491C66.3225 19.1491 70.3387 19.9971 73.5409 18.2792C72.6418 19.8541 71.4834 21.3757 71.0694 22.9929C70.2175 26.3178 71.5692 28.6236 74.4403 28.9439C74.4403 28.9439 76.0441 17.0449 90.6644 2.51045C91.7716 1.40969 93.4544 -0.203872 96.8546 2.01223C96.8546 2.01223 99.866 3.86396 98.3643 7.66554C98.3643 7.66554 97.4111 9.82255 94.6337 10.1373C94.6337 10.1373 101.121 11.4675 102.708 7.05863C103.689 4.33008 102.109 1.35863 99.3243 0.506257V0.505892Z" fill="#3775BB"/>
<path fill-rule="evenodd" clip-rule="evenodd" d="M70.5185 2.11615C69.6739 1.64054 68.7636 1.31192 67.8241 1.1259C67.8241 1.1259 68.7459 2.13657 69.0539 2.83867L69.0456 2.82737C69.9332 4.52482 69.152 7.97298 66.7916 11.7899C63.5937 16.9606 58.7116 20.8461 55.8874 20.4679C53.0628 20.0897 53.3657 15.5915 56.5636 10.4207C57.0335 9.66058 57.5402 8.92857 58.0711 8.23376C58.0711 8.23376 61.1496 3.70017 64.8938 2.2697C65.0507 2.19857 65.2062 2.13329 65.3587 2.0753C65.3796 2.07931 65.402 2.08405 65.4251 2.08915C65.974 1.92721 66.5344 1.83822 67.0992 1.84333C67.061 1.80065 67.0217 1.75907 66.9802 1.71932C66.749 1.4972 66.4666 1.32176 66.142 1.21526C66.1388 1.21417 66.1359 1.21344 66.133 1.21234C65.5881 1.03399 65.0103 0.9822 64.4412 1.04895C63.919 1.11022 63.3456 1.19739 62.7357 1.31958C60.2743 1.81378 57.2268 2.88682 54.5966 5.18498L53.537 6.20477C52.5673 7.2333 51.6808 8.46025 50.9378 9.92355C50.1098 11.5543 49.7834 13.4082 50.0694 15.2183C50.4582 17.681 52.0342 20.5904 57.1558 21.2152C57.1558 21.2152 67.3607 22.5155 73.0557 12.1258C73.7283 10.8985 74.1131 9.52527 74.112 8.12215C74.1109 6.20258 73.4322 3.75706 70.5185 2.11687V2.11615Z" fill="#3775BB"/>
<path fill-rule="evenodd" clip-rule="evenodd" d="M50.248 20.2845C47.1021 19.8647 42.1702 19.9256 37.4479 21.9327C36.6509 22.2715 35.825 22.544 34.9847 22.7716C30.7316 23.923 23.1475 23.5721 13.2914 19.4974C14.7394 23.0579 18.4335 25.3447 21.7752 26.8766C20.3204 29.53 16.8679 34.8649 14.9312 36.7899C13.824 37.8907 9.54638 41.2615 6.14619 39.0454C6.14619 39.0454 3.13478 37.1937 4.63652 33.3921C4.63652 33.3921 5.58971 31.2351 8.36706 30.9203C8.36706 30.9203 1.87937 29.5902 0.293237 33.999C-0.688447 36.7276 0.891552 39.699 3.67648 40.5514C5.23339 41.0281 7.2422 40.9807 10.3874 41.0004C17.3014 41.0438 24.6352 32.1615 27.397 28.3472C29.2652 28.2327 30.9772 27.9868 32.8818 27.5422C33.8346 27.3197 35.5949 27.048 36.718 26.7176C37.5154 32.3169 31.8903 35.8832 31.8903 35.8832H42.6016C39.0943 30.9255 39.2804 26.7573 39.98 24.6758C40.1798 24.0817 40.5556 23.5616 41.062 23.199C41.0652 23.1968 41.0681 23.1946 41.0713 23.1921C42.5323 22.1938 44.8989 20.8812 47.2896 20.8389C47.2896 20.8389 50.2159 20.7218 50.1016 23.0473C50.1016 23.0473 50.0316 24.57 47.6564 24.8315C47.5493 24.8432 47.4418 24.8483 47.334 24.8458C46.5471 24.8279 42.678 24.7072 40.9657 24.0543C40.9657 24.0543 43.2327 26.0414 50.2653 25.4939C50.925 25.4425 51.5658 25.243 52.1173 24.8965C52.7387 24.5062 53.3489 23.8763 53.3395 22.9094C53.3395 22.9094 53.3929 20.7035 50.2488 20.2841L50.248 20.2845Z" fill="#3775BB"/>
<path fill-rule="evenodd" clip-rule="evenodd" d="M43.0542 2.13769C42.2095 1.66208 41.2992 1.33346 40.3598 1.14745C40.3598 1.14745 41.2816 2.15812 41.5896 2.86022L41.5813 2.84891C42.4688 4.54637 41.6877 7.99452 39.3272 11.8114C36.1293 16.9822 31.2473 20.8677 28.423 20.4894C25.5984 20.1112 25.9014 15.613 29.0992 10.4422C29.5692 9.68212 30.0759 8.95011 30.6067 8.2553C30.6067 8.2553 33.6852 3.72171 37.4295 2.29124C37.5864 2.22012 37.7418 2.15483 37.8944 2.09684C37.9153 2.10085 37.9373 2.10559 37.9607 2.1107C38.5096 1.94876 39.0701 1.85977 39.6348 1.86487C39.5966 1.8222 39.5573 1.78062 39.5158 1.74086C39.2847 1.51874 39.0023 1.34331 38.6777 1.23681C38.6744 1.23571 38.6716 1.23462 38.6687 1.23389C38.1237 1.05554 37.546 1.00375 36.9769 1.07049C36.4547 1.13177 35.8812 1.21894 35.2714 1.34112C32.8099 1.83533 29.7625 2.90836 27.1323 5.20653L26.0727 6.22631C25.1029 7.25485 24.2164 8.4818 23.4735 9.9451C22.6454 11.5758 22.3191 13.4297 22.605 15.2399C22.9938 17.7025 24.5699 20.612 29.6914 21.2368C29.6914 21.2368 39.8963 22.537 45.5913 12.1473C46.2639 10.92 46.6487 9.54681 46.6476 8.1437C46.6466 6.22412 45.9678 3.77861 43.0542 2.13842V2.13769Z" fill="#3775BB"/>
</g>
<defs>
<clipPath id="clip0_94_92">
<rect width="103" height="41" fill="white"/>
</clipPath>
</defs>
</svg>
